<?xml version="1.0" encoding="UTF-8" standalone="no"?>
<svg width="32px" height="32px" viewBox="0 0 32 32" version="1.1" xmlns="http://www.w3.org/2000/svg" xmlns:xlink="http://www.w3.org/1999/xlink" xmlns:sketch="http://www.bohemiancoding.com/sketch/ns">
    <!-- Generator: Sketch Beta 3.4 (14861) - http://www.bohemiancoding.com/sketch -->
    <title>Oval 8</title>
    <desc>Created with Sketch Beta.</desc>
    <defs></defs>
    <g id="Page-1" stroke="none" stroke-width="1" fill="none" fill-rule="evenodd" sketch:type="MSPage">
        <g id="QOR3" sketch:type="MSArtboardGroup" transform="translate(-752.000000, -1229.000000)" fill="#FF4081">
            <g id="Features-Summaries" sketch:type="MSLayerGroup" transform="translate(137.000000, 857.000000)">
                <g id="Annotation" transform="translate(519.000000, 372.000000)" sketch:type="MSShapeGroup">
                    <path d="M112,32 C120.836556,32 128,24.836556 128,16 C128,7.163444 120.836556,0 112,0 C103.163444,0 96,7.163444 96,16 C96,24.836556 103.163444,32 112,32 Z M109,24.9691558 C109,24.5477252 109.071197,24.1550343 109.213592,23.7910714 C109.355988,23.4271086 109.556633,23.1142329 109.815534,22.8524351 C110.074435,22.5906372 110.388348,22.3831176 110.757282,22.2298701 C111.126215,22.0766226 111.543687,22 112.009709,22 C112.462785,22 112.873785,22.0766226 113.242718,22.2298701 C113.611652,22.3831176 113.925565,22.5906372 114.184466,22.8524351 C114.443367,23.1142329 114.644012,23.4271086 114.786408,23.7910714 C114.928803,24.1550343 115,24.5477252 115,24.9691558 C115,25.3905865 114.928803,25.7800848 114.786408,26.1376623 C114.644012,26.4952399 114.443367,26.8049229 114.184466,27.0667208 C113.925565,27.3285186 113.611652,27.5328456 113.242718,27.6797078 C112.873785,27.82657 112.462785,27.9 112.009709,27.9 C111.543687,27.9 111.126215,27.82657 110.757282,27.6797078 C110.388348,27.5328456 110.074435,27.3285186 109.815534,27.0667208 C109.556633,26.8049229 109.355988,26.4952399 109.213592,26.1376623 C109.071197,25.7800848 109,25.3905865 109,24.9691558 Z M114.342193,19 L109.657807,19 L109,4 L115,4 L114.342193,19 Z" id="Oval-8"></path>
                </g>
            </g>
        </g>
    </g>
</svg>