<?xml version="1.0" encoding="UTF-8" standalone="no"?>
<svg width="72px" height="32px" viewBox="0 0 72 32" version="1.1" xmlns="http://www.w3.org/2000/svg" xmlns:xlink="http://www.w3.org/1999/xlink" xmlns:sketch="http://www.bohemiancoding.com/sketch/ns">
    <!-- Generator: Sketch 3.3.2 (12043) - http://www.bohemiancoding.com/sketch -->
    <title>QOR3 logo</title>
    <desc>Created with Sketch.</desc>
    <defs></defs>
    <g id="Page-1" stroke="none" stroke-width="1" fill="none" fill-rule="evenodd" sketch:type="MSPage">
        <g id="QOR3" sketch:type="MSArtboardGroup" transform="translate(-136.000000, -11.000000)">
            <g id="new-main-menu" sketch:type="MSLayerGroup">
                <g id="QOR3-logo" transform="translate(136.000000, 11.000000)" sketch:type="MSShapeGroup">
                    <path d="M48,0 L72,0 L72,24 L48,24 L48,0 Z M56,8 L64,8 L64,16 L56,16 L56,8 Z M56,16 L56,24 L64,24 L56,16 Z" id="R" fill="#FFFFFF"></path>
                    <rect id="Path" x="24" y="0" width="24" height="24"></rect>
                    <rect id="Path" fill="#FFFFFF" x="32" y="8" width="8" height="8"></rect>
                    <path d="M0,0 L24,0 L24,24 L0,24 L0,0 Z M8,8 L16,8 L16,16 L8,16 L8,8 Z M24,32 L24,24 L16,24 L24,32 Z" id="Q" fill="#FFFFFF"></path>
                </g>
            </g>
        </g>
    </g>
</svg>